<svg xmlns="http://www.w3.org/2000/svg" xmlns:svg="http://www.w3.org/2000/svg" id="svg10141" width="64" height="64" version="1.1"><metadata id="metadata10146"/><g id="layer1"><g id="g4938" style="fill:#dde9af"><circle id="path4190-1" cx="39.455" cy="24.727" r="21.026" style="opacity:1;fill:#dde9af;fill-opacity:1;stroke:#fff;stroke-width:3.773;stroke-linecap:round;stroke-miterlimit:0;stroke-dasharray:none;stroke-dashoffset:0;stroke-opacity:1"/><circle id="path4190" cx="39.614" cy="24.75" r="21.026" style="opacity:1;fill:#dde9af;fill-opacity:.19607843;stroke:#000;stroke-width:3.773;stroke-linecap:round;stroke-miterlimit:0;stroke-dasharray:none;stroke-dashoffset:0;stroke-opacity:1"/></g><g id="g4976" transform="translate(0,-20)"><rect id="rect4197-7" width="38.412" height="37.559" x="3.339" y="42.13" style="opacity:1;fill:#fff;fill-opacity:1;stroke:#fff;stroke-width:3.54299998;stroke-linecap:round;stroke-miterlimit:0;stroke-dasharray:none;stroke-dashoffset:0;stroke-opacity:1"/><rect id="rect4197" width="38.412" height="37.559" x="3.339" y="42.248" style="opacity:1;fill:navy;fill-opacity:.19607843;stroke:#000;stroke-width:3.54299998;stroke-linecap:round;stroke-miterlimit:0;stroke-dasharray:none;stroke-dashoffset:0;stroke-opacity:1"/></g><g id="g4957" style="fill:#ffd5d5"><path id="rect10907-4" d="m 19.184127,22.465815 c -0.06244,0.657031 -0.354569,1.218702 -0.354569,1.892042 0,11.488488 9.323953,20.812477 20.812479,20.812477 0.67334,0 1.235012,-0.292131 1.892043,-0.354569 l 0,-22.349761 -22.349763,0 z" style="display:inline;fill:#ffd5d5;fill-opacity:1;fill-rule:evenodd;stroke:#fff;stroke-width:3.78408766;stroke-linecap:butt;stroke-linejoin:round;stroke-miterlimit:0;stroke-dasharray:none;stroke-dashoffset:0;stroke-opacity:1;marker:none"/><path id="rect10907" d="m 19.11049,22.539779 c -0.06244,0.657031 -0.354569,1.218703 -0.354569,1.892043 0,11.488488 9.323952,20.812477 20.812478,20.812477 0.67334,0 1.235012,-0.292131 1.892043,-0.354569 l 0,-22.349762 -22.349762,0 z" style="display:inline;fill:#ffd5d5;fill-opacity:.19607843;fill-rule:evenodd;stroke:#000;stroke-width:3.78408766;stroke-linecap:butt;stroke-linejoin:round;stroke-miterlimit:0;stroke-dasharray:none;stroke-dashoffset:0;stroke-opacity:1;marker:none"/></g></g></svg>